<svg xmlns="http://www.w3.org/2000/svg" xmlns:lucid="lucid" width="903" height="450.26"><g lucid:page-tab-id="0_0"><path d="M-278.5-218.5h1500v1000h-1500z" fill="#fff"/><path d="M681.52 149.98h20.02v87.36h-20.02c-11 0-19.8-9.36-20.02-21.36v-42.96c-.44-12.24 7.92-22.32 19.14-23.04h.88zM841.46 149.98h20.02c11 0 20.02 9.84 20.02 21.84v44.88c0 12-9.02 21.6-20.02 21.6h-20.02v-88.32z" stroke="#000" stroke-width="3" fill-opacity="0"/><path d="M851.58 237.82c0 24.24-18.04 43.68-40.04 43.68H771.5M691.42 150.7v-21.84c0-48.24 35.86-87.36 80.08-87.36s80.08 39.12 80.08 87.36v21.84M54.26 281.5h114.48c9 0 16.38 7.36 16.38 16.35v98.22H37.88v-98.22c0-9 7.38-16.35 16.38-16.35z" stroke="#000" stroke-width="3" fill-opacity="0"/><path d="M21.5 396.07h180v16.34c0 9-7.38 16.36-16.38 16.36H37.88c-9 0-16.38-7.37-16.38-16.35v-16.33zM78.74 201.5l8.28-40.86M54.26 201.5h114.48M37.88 21.5h147.24c10.98 0 16.38 5.4 16.38 16.38v106.38c0 10.98-5.4 16.38-16.38 16.38H37.88c-10.98 0-16.38-5.4-16.38-16.38V37.88c0-10.98 5.4-16.38 16.38-16.38zM143.72 201.5l-8.28-40.86M21.5 127.88h180" stroke="#000" stroke-width="3" fill-opacity="0"/><path d="M188.12 355.13h32.5a6 6 0 0 0 6-6V147.5a6 6 0 0 1 6-6h210.66a6 6 0 0 1 6 6v13.38" stroke="#1071e5" stroke-width="3" fill="none"/><path d="M188.16 356.63h-1.54v-3h1.54z" stroke="#1071e5" stroke-width=".05" fill="#1071e5"/><path d="M449.28 176.65l-4.64-14.27h9.27z" stroke="#1071e5" stroke-width="3" fill="#1071e5"/><path d="M204.5 98.17h263.9a6 6 0 0 1 6 6v56.7" stroke="#1071e5" stroke-width="3" fill="none"/><path d="M204.54 99.67H203v-3h1.54z" stroke="#1071e5" stroke-width=".05" fill="#1071e5"/><path d="M474.4 176.65l-4.65-14.27h9.27z" stroke="#1071e5" stroke-width="3" fill="#1071e5"/><path d="M518.7 180V68.17a6 6 0 0 0-6-6H223.63" stroke="#e81313" stroke-width="3" fill="none"/><path d="M520.2 181.5h-3v-1.54h3z" stroke="#e81313" stroke-width=".05" fill="#e81313"/><path d="M207.85 62.17l14.27-4.64v9.27z" stroke="#e81313" stroke-width="3" fill="#e81313"/><path d="M550.7 234.4h47.9a6 6 0 0 0 6-6v-25.17a6 6 0 0 1 6-6h28.78" stroke="#1071e5" stroke-width="3" fill="none"/><path d="M550.74 235.9h-1.54v-3h1.53z" stroke="#1071e5" stroke-width=".05" fill="#1071e5"/><path d="M655.15 197.23l-14.27 4.64v-9.27z" stroke="#1071e5" stroke-width="3" fill="#1071e5"/><path d="M790.03 284.5V317a6 6 0 0 1-6 6H595.2a6 6 0 0 1-6-6v-96.1a6 6 0 0 0-6-6h-13.38" stroke="#e81313" stroke-width="3" fill="none"/><path d="M791.53 284.54h-3V283h3z" stroke="#e81313" stroke-width=".05" fill="#e81313"/><path d="M554.05 214.9l14.27-4.64v9.27z" stroke="#e81313" stroke-width="3" fill="#e81313"/><path d="M381.5 181.5h167.7v220H381.5v-220z" stroke="#000" stroke-opacity="0" stroke-width="2.24" fill="#313131"/><path d="M387.87 346.94H435v35.42h-47.13v-35.42z" stroke="#000" stroke-opacity="0" stroke-width="2.26" fill="#b2b5ba"/><path d="M436.84 346.94h47.3v35.64h-47.3v-35.64z" stroke="#000" stroke-opacity="0" stroke-width="2.27" fill="#b2b5ba"/><path d="M486.48 295.24h56.18v87.34h-56.18v-87.34z" stroke="#000" stroke-opacity="0" stroke-width="3.87" fill="#b2b5ba"/><path d="M418.23 278.74c0 3.52-3.2 6.6-7.05 6.6-3.85 0-7.04-2.86-7.04-6.6 0-3.52 3.2-6.38 7.04-6.38 3.86 0 7.05 2.86 7.05 6.38h-7.05z" stroke="#000" stroke-opacity="0" stroke-width="2.24" fill="#fff"/><path d="M417.55 361.68c0 3.52-3.18 6.38-7.04 6.38-3.85 0-7.03-2.86-7.03-6.38s3.02-6.38 6.87-6.38c3.86 0 7.05 2.86 7.2 6.38h-7.03zM469.2 362.78c0 3.52-3 6.38-6.87 6.38-4.03 0-7.04-2.86-7.04-6.38s3-6.38 6.86-6.38c3.86-.22 7.05 2.64 7.05 6.38h-6.87z" stroke="#000" stroke-opacity="0" stroke-width="2.24"/><path d="M409.67 271.04h3.02v8.36h-3.03v-8.36zM409.17 353.98h3.02v8.58h-3.03v-8.58zM460.5 355.52h3v8.36h-3v-8.36z" stroke="#000" stroke-opacity="0" stroke-width="2.24" fill="#b2b5ba"/><path d="M534.1 279.4c0 3.52-3.18 6.38-7.04 6.38s-7.04-2.86-7.04-6.38 3.02-6.38 6.87-6.6c4.02 0 7.04 2.86 7.2 6.6h-7.04z" stroke="#000" stroke-opacity="0" stroke-width="2.24" fill="#fff"/><path d="M525.55 271.48h2.85v8.36h-2.85v-8.36z" stroke="#000" stroke-opacity="0" stroke-width="2.24" fill="#b2b5ba"/><path d="M524.04 363.22c0 3.74-3.52 7.04-8.05 7.04-4.37 0-7.9-3.08-7.9-7.04-.16-3.96 3.53-7.04 7.9-7.04 4.35 0 8.04 3.08 8.04 7.04H516z" stroke="#000" stroke-opacity="0" stroke-width="2.5" fill="#fff"/><path d="M514.32 354.64h2.85v8.58h-2.85v-8.58z" stroke="#000" stroke-opacity="0" stroke-width="2.24" fill="#b2b5ba"/><path d="M456.46 227.92c0 3.52-3.2 6.38-7.04 6.38-3.86 0-7.05-2.86-7.05-6.38s3.2-6.6 7.05-6.6c3.85 0 7.04 2.86 7.04 6.38l-7.04.22zM481.28 227.92c0 3.52-3.02 6.38-6.88 6.38-4.02 0-7.04-2.86-7.04-6.38-.17-3.52 3.02-6.6 6.88-6.6 3.85 0 7.04 2.86 7.04 6.38l-7.04.22zM506.27 227.92c0 3.52-3.2 6.38-7.05 6.38-3.85 0-7.04-2.86-7.04-6.38s3.2-6.6 7.04-6.6c3.86 0 7.05 2.86 7.05 6.38l-7.05.22z" stroke="#000" stroke-opacity="0" stroke-width="2.24" fill="#d71920"/><path d="M506.27 205.04c0 3.52-3.2 6.38-7.05 6.38-3.85 0-7.04-2.86-7.04-6.38s3.2-6.38 7.04-6.38c3.86 0 7.05 2.86 7.05 6.38h-7.05zM481.28 205.04c0 3.52-3.02 6.38-6.88 6.38-4.02 0-7.04-2.86-7.04-6.38-.17-3.52 3.02-6.38 6.88-6.38 3.85 0 7.04 2.86 7.04 6.38h-7.04zM456.46 205.04c0 3.52-3.2 6.38-7.04 6.38-3.86 0-7.05-2.86-7.05-6.38s3.2-6.38 7.05-6.38c3.85 0 7.04 2.86 7.04 6.38h-7.04z" stroke="#000" stroke-opacity="0" stroke-width="2.24" fill="#fff"/><path d="M442.88 275h12.24v7.92h-12.24V275z" stroke="#000" stroke-opacity="0" stroke-width="2.24" fill="#d71920"/><path d="M468.2 275h11.4v8.58h-11.4V275zM492.35 275h12.07v7.92h-12.07V275zM533.6 215.38c0 2.86-2.68 5.28-5.87 5.28-3.02 0-5.7-2.42-5.7-5.28 0-2.86 2.5-5.28 5.7-5.28s5.7 2.2 5.87 5.28h-5.87zM533.6 236.06c0 3.08-2.68 5.28-5.87 5.28-3.02 0-5.7-2.2-5.7-5.06 0-3.08 2.5-5.28 5.7-5.28 3.2-.22 5.7 2.2 5.87 5.06h-5.87zM432.82 216.04c0 10.56-9.23 19.14-20.8 19.14s-20.8-8.58-20.96-19.14c0-10.56 9.22-19.14 20.8-19.14 11.56 0 20.8 8.36 20.96 18.92l-20.8.22z" stroke="#000" stroke-opacity="0" stroke-width="2.24"/><path d="M386.87 191.84h1.34v51.04h-1.33v-51.04zM436.67 192.06H438v51.26h-1.33v-51.26zM511.13 192.72h1.34v51.04h-1.34v-51.04zM545 193.38h1.35v51.04H545v-51.04zM461.66 192.5H463v51.04h-1.34V192.5zM485.64 192.72h1.34v51.04h-1.34v-51.04z" stroke="#000" stroke-opacity="0" stroke-width="2.24" fill="#b0b1b1"/><path d="M387.2 263.56h1.34v81.84h-1.34v-81.84zM436 263.56h1.34v81.84H436v-81.84z" stroke="#000" stroke-opacity="0" stroke-width="2.84" fill="#b0b1b1"/><path d="M484.97 263.56h1.34v28.6h-1.33v-28.6zM509.45 263.56h1.34v28.6h-1.35v-28.6zM543.16 263.56h1.34v28.6h-1.34v-28.6z" stroke="#000" stroke-opacity="0" stroke-width="1.68" fill="#b0b1b1"/><path d="M398.27 297.88c1.5 0 2.68 1.1 2.68 2.42v40.04c0 1.54-1.34 2.86-3.02 2.86-1.67 0-2.85-1.1-2.85-2.64v-39.82c0-1.54 1.34-2.86 3.2-2.86zM412.52 297.88c1.5 0 2.7 1.1 2.7 2.42v40.04c0 1.54-1.36 2.86-3.03 2.86-1.7 0-2.86-1.1-2.86-2.64v-39.82c0-1.54 1.34-2.86 3.18-2.86zM426.1 297.88h.17c1.5 0 2.7 1.1 2.7 2.42v40.04c0 1.54-1.35 2.86-3.03 2.86-1.68 0-2.85-1.1-2.85-2.64v-39.82c0-1.54 1.33-2.86 3-2.86zM449.42 297.88h.17c1.5 0 2.67 1.1 2.67 2.42v40.04c0 1.54-1.34 2.86-3.02 2.86s-2.85-1.1-2.85-2.64v-39.82c0-1.54 1.34-2.86 3.02-2.86zM462.5 297.88h.16c1.5 0 2.7 1.1 2.7 2.42v40.04c0 1.54-1.35 2.86-3.03 2.86-1.68 0-2.85-1.1-2.85-2.64v-39.82c0-1.54 1.34-2.86 3.02-2.86zM476.25 297.88h.17c1.5 0 2.68 1.1 2.68 2.42v40.04c0 1.54-1.34 2.86-3.02 2.86s-2.85-1.1-2.85-2.64v-39.82c0-1.54 1.34-2.86 3.02-2.86z" stroke="#000" stroke-opacity="0" stroke-width="2.24"/></g></svg>