<svg xmlns="http://www.w3.org/2000/svg" xmlns:xlink="http://www.w3.org/1999/xlink" xmlns:lucid="lucid" width="903" height="450.26"><g transform="translate(-278.5 -218.5)" lucid:page-tab-id="0_0"><path d="M0 0h1500v1000H0z" fill="#fff"/><path d="M960.02 368.48h20.02v87.36h-20.02c-11 0-19.8-9.36-20.02-21.36v-42.96c-.44-12.24 7.92-22.32 19.14-23.04h.88zM1119.96 368.48h20.02c11 0 20.02 9.84 20.02 21.84v44.88c0 12-9.02 21.6-20.02 21.6h-20.02v-88.32z" stroke="#000" stroke-width="3" fill-opacity="0"/><path d="M1130.08 456.32c0 24.24-18.04 43.68-40.04 43.68H1050M969.92 369.2v-21.84c0-48.24 35.86-87.36 80.08-87.36s80.08 39.12 80.08 87.36v21.84M332.76 500h114.48c9 0 16.38 7.36 16.38 16.35v98.22H316.38v-98.22c0-9 7.38-16.35 16.38-16.35zM300 614.57h180v16.34c0 9-7.38 16.36-16.38 16.36H316.38c-9 0-16.38-7.37-16.38-16.35v-16.33zM357.24 420l8.28-40.86M332.76 420h114.48M316.38 240h147.24c10.98 0 16.38 5.4 16.38 16.38v106.38c0 10.98-5.4 16.38-16.38 16.38H316.38c-10.98 0-16.38-5.4-16.38-16.38V256.38c0-10.98 5.4-16.38 16.38-16.38zM422.22 420l-8.28-40.86M300 346.38h180" stroke="#000" stroke-width="3" fill-opacity="0"/><path d="M466.62 573.63h32.5a6 6 0 0 0 6-6V366a6 6 0 0 1 6-6h210.66a6 6 0 0 1 6 6v13.38" stroke="#1071e5" stroke-width="3" fill="none"/><path d="M466.66 575.13h-1.54v-3h1.54z" stroke="#1071e5" stroke-width=".05" fill="#1071e5"/><path d="M727.78 395.15l-4.64-14.27h9.27z" stroke="#1071e5" stroke-width="3" fill="#1071e5"/><path d="M483 316.67h263.9a6 6 0 0 1 6 6v56.7" stroke="#1071e5" stroke-width="3" fill="none"/><path d="M483.04 318.17h-1.54v-3h1.54z" stroke="#1071e5" stroke-width=".05" fill="#1071e5"/><path d="M752.9 395.15l-4.65-14.27h9.27z" stroke="#1071e5" stroke-width="3" fill="#1071e5"/><path d="M797.2 398.5V286.67a6 6 0 0 0-6-6H502.13" stroke="#e81313" stroke-width="3" fill="none"/><path d="M798.7 400h-3v-1.54h3z" stroke="#e81313" stroke-width=".05" fill="#e81313"/><path d="M486.35 280.67l14.27-4.64v9.27z" stroke="#e81313" stroke-width="3" fill="#e81313"/><path d="M829.2 452.9H894a6 6 0 0 0 6-6v-25.17a6 6 0 0 1 6-6h11.88" stroke="#1071e5" stroke-width="3" fill="none"/><path d="M829.24 454.4h-1.54v-3h1.53z" stroke="#1071e5" stroke-width=".05" fill="#1071e5"/><path d="M933.65 415.73l-14.27 4.64v-9.27z" stroke="#1071e5" stroke-width="3" fill="#1071e5"/><path d="M1068.53 503v32.5a6 6 0 0 1-6 6H926a6 6 0 0 1-6-6v-96.1a6 6 0 0 0-6-6h-65.68" stroke="#e81313" stroke-width="3" fill="none"/><path d="M1070.03 503.04h-3v-1.54h3z" stroke="#e81313" stroke-width=".05" fill="#e81313"/><path d="M832.55 433.4l14.27-4.64v9.27z" stroke="#e81313" stroke-width="3" fill="#e81313"/><path d="M660 400h167.7v220H660V400z" stroke="#000" stroke-opacity="0" stroke-width="2.24" fill="#313131"/><path d="M666.37 565.44h47.13v35.42h-47.13v-35.42z" stroke="#000" stroke-opacity="0" stroke-width="2.26" fill="#b2b5ba"/><path d="M715.34 565.44h47.3v35.64h-47.3v-35.64z" stroke="#000" stroke-opacity="0" stroke-width="2.27" fill="#b2b5ba"/><path d="M764.98 513.74h56.18v87.34h-56.18v-87.34z" stroke="#000" stroke-opacity="0" stroke-width="3.87" fill="#b2b5ba"/><path d="M696.73 497.24c0 3.52-3.2 6.6-7.05 6.6-3.85 0-7.04-2.86-7.04-6.6 0-3.52 3.2-6.38 7.04-6.38 3.86 0 7.05 2.86 7.05 6.38h-7.05z" stroke="#000" stroke-opacity="0" stroke-width="2.24" fill="#fff"/><path d="M696.05 580.18c0 3.52-3.18 6.38-7.04 6.38-3.85 0-7.03-2.86-7.03-6.38s3.02-6.38 6.87-6.38c3.86 0 7.05 2.86 7.2 6.38h-7.03zM747.7 581.28c0 3.52-3 6.38-6.87 6.38-4.03 0-7.04-2.86-7.04-6.38s3-6.38 6.86-6.38c3.86-.22 7.05 2.64 7.05 6.38h-6.87z" stroke="#000" stroke-opacity="0" stroke-width="2.24"/><path d="M688.17 489.54h3.02v8.36h-3.03v-8.36zM687.67 572.48h3.02v8.58h-3.03v-8.58zM739 574.02h3v8.36h-3v-8.36z" stroke="#000" stroke-opacity="0" stroke-width="2.24" fill="#b2b5ba"/><path d="M812.6 497.9c0 3.52-3.18 6.38-7.04 6.38s-7.04-2.86-7.04-6.38 3.02-6.38 6.87-6.6c4.02 0 7.04 2.86 7.2 6.6h-7.04z" stroke="#000" stroke-opacity="0" stroke-width="2.24" fill="#fff"/><path d="M804.05 489.98h2.85v8.36h-2.85v-8.36z" stroke="#000" stroke-opacity="0" stroke-width="2.24" fill="#b2b5ba"/><path d="M802.54 581.72c0 3.74-3.52 7.04-8.05 7.04-4.37 0-7.9-3.08-7.9-7.04-.16-3.96 3.53-7.04 7.9-7.04 4.35 0 8.04 3.08 8.04 7.04h-8.05z" stroke="#000" stroke-opacity="0" stroke-width="2.5" fill="#fff"/><path d="M792.82 573.14h2.85v8.58h-2.85v-8.58z" stroke="#000" stroke-opacity="0" stroke-width="2.24" fill="#b2b5ba"/><path d="M734.96 446.42c0 3.52-3.2 6.38-7.04 6.38-3.86 0-7.05-2.86-7.05-6.38s3.2-6.6 7.05-6.6c3.85 0 7.04 2.86 7.04 6.38l-7.04.22zM759.78 446.42c0 3.52-3.02 6.38-6.88 6.38-4.02 0-7.04-2.86-7.04-6.38-.17-3.52 3.02-6.6 6.88-6.6 3.85 0 7.04 2.86 7.04 6.38l-7.04.22zM784.77 446.42c0 3.52-3.2 6.38-7.05 6.38-3.85 0-7.04-2.86-7.04-6.38s3.2-6.6 7.04-6.6c3.86 0 7.05 2.86 7.05 6.38l-7.05.22z" stroke="#000" stroke-opacity="0" stroke-width="2.24" fill="#d71920"/><path d="M784.77 423.54c0 3.52-3.2 6.38-7.05 6.38-3.85 0-7.04-2.86-7.04-6.38s3.2-6.38 7.04-6.38c3.86 0 7.05 2.86 7.05 6.38h-7.05zM759.78 423.54c0 3.52-3.02 6.38-6.88 6.38-4.02 0-7.04-2.86-7.04-6.38-.17-3.52 3.02-6.38 6.88-6.38 3.85 0 7.04 2.86 7.04 6.38h-7.04zM734.96 423.54c0 3.52-3.2 6.38-7.04 6.38-3.86 0-7.05-2.86-7.05-6.38s3.2-6.38 7.05-6.38c3.85 0 7.04 2.86 7.04 6.38h-7.04z" stroke="#000" stroke-opacity="0" stroke-width="2.24" fill="#fff"/><path d="M721.38 493.5h12.24v7.92h-12.24v-7.92z" stroke="#000" stroke-opacity="0" stroke-width="2.24" fill="#d71920"/><path d="M746.7 493.5h11.4v8.58h-11.4v-8.58zM770.85 493.5h12.07v7.92h-12.07v-7.92zM812.1 433.88c0 2.86-2.68 5.28-5.87 5.28-3.02 0-5.7-2.42-5.7-5.28 0-2.86 2.5-5.28 5.7-5.28s5.7 2.2 5.87 5.28h-5.87zM812.1 454.56c0 3.08-2.68 5.28-5.87 5.28-3.02 0-5.7-2.2-5.7-5.06 0-3.08 2.5-5.28 5.7-5.28 3.2-.22 5.7 2.2 5.87 5.06h-5.87zM711.32 434.54c0 10.56-9.23 19.14-20.8 19.14s-20.8-8.58-20.96-19.14c0-10.56 9.22-19.14 20.8-19.14 11.56 0 20.8 8.36 20.96 18.92l-20.8.22z" stroke="#000" stroke-opacity="0" stroke-width="2.24"/><path d="M665.37 410.34h1.34v51.04h-1.33v-51.04zM715.17 410.56h1.34v51.26h-1.33v-51.26zM789.63 411.22h1.34v51.04h-1.34v-51.04zM823.5 411.88h1.35v51.04h-1.35v-51.04zM740.16 411h1.34v51.04h-1.34V411zM764.14 411.22h1.34v51.04h-1.34v-51.04z" stroke="#000" stroke-opacity="0" stroke-width="2.24" fill="#b0b1b1"/><path d="M665.7 482.06h1.34v81.84h-1.34v-81.84zM714.5 482.06h1.34v81.84h-1.34v-81.84z" stroke="#000" stroke-opacity="0" stroke-width="2.84" fill="#b0b1b1"/><path d="M763.47 482.06h1.34v28.6h-1.33v-28.6zM787.95 482.06h1.34v28.6h-1.35v-28.6zM821.66 482.06H823v28.6h-1.34v-28.6z" stroke="#000" stroke-opacity="0" stroke-width="1.68" fill="#b0b1b1"/><path d="M676.77 516.38c1.5 0 2.68 1.1 2.68 2.42v40.04c0 1.54-1.34 2.86-3.02 2.86-1.67 0-2.85-1.1-2.85-2.64v-39.82c0-1.54 1.34-2.86 3.2-2.86zM691.02 516.38c1.5 0 2.7 1.1 2.7 2.42v40.04c0 1.54-1.36 2.86-3.03 2.86-1.7 0-2.86-1.1-2.86-2.64v-39.82c0-1.54 1.34-2.86 3.18-2.86zM704.6 516.38h.17c1.5 0 2.7 1.1 2.7 2.42v40.04c0 1.54-1.35 2.86-3.03 2.86-1.68 0-2.85-1.1-2.85-2.64v-39.82c0-1.54 1.33-2.86 3-2.86zM727.92 516.38h.17c1.5 0 2.67 1.1 2.67 2.42v40.04c0 1.54-1.34 2.86-3.02 2.86s-2.85-1.1-2.85-2.64v-39.82c0-1.54 1.34-2.86 3.02-2.86zM741 516.38h.16c1.5 0 2.7 1.1 2.7 2.42v40.04c0 1.54-1.35 2.86-3.03 2.86-1.68 0-2.85-1.1-2.85-2.64v-39.82c0-1.54 1.34-2.86 3.02-2.86zM754.75 516.38h.17c1.5 0 2.68 1.1 2.68 2.42v40.04c0 1.54-1.34 2.86-3.02 2.86s-2.85-1.1-2.85-2.64v-39.82c0-1.54 1.34-2.86 3.02-2.86z" stroke="#000" stroke-opacity="0" stroke-width="2.24"/><path d="M600 266a6 6 0 0 1 6-6h68a6 6 0 0 1 6 6v8a6 6 0 0 1-6 6h-68a6 6 0 0 1-6-6z" stroke="#000" stroke-opacity="0" fill="#fff" fill-opacity="0"/><use xlink:href="#a" transform="matrix(1,0,0,1,605,265) translate(19.033950617283953 12.444444444444443)"/><path d="M660 346a6 6 0 0 1 6-6h68a6 6 0 0 1 6 6v8a6 6 0 0 1-6 6h-68a6 6 0 0 1-6-6z" stroke="#000" stroke-opacity="0" fill="#fff" fill-opacity="0"/><use xlink:href="#b" transform="matrix(1,0,0,1,665,345) translate(18.62345679012346 12.444444444444443)"/><path d="M700 326a6 6 0 0 1 6-6h48a6 6 0 0 1 6 6v8a6 6 0 0 1-6 6h-48a6 6 0 0 1-6-6z" stroke="#000" stroke-opacity="0" fill="#fff" fill-opacity="0"/><use xlink:href="#b" transform="matrix(1,0,0,1,705,325) translate(8.62345679012346 12.444444444444443)"/><path d="M460 586a6 6 0 0 1 6-6h68a6 6 0 0 1 6 6v8a6 6 0 0 1-6 6h-68a6 6 0 0 1-6-6z" stroke="#000" stroke-opacity="0" fill="#fff" fill-opacity="0"/><use xlink:href="#c" transform="matrix(1,0,0,1,465,585) translate(7.549999999999997 14.4)"/><path d="M480 326a6 6 0 0 1 6-6h55.7a6 6 0 0 1 6 6v8a6 6 0 0 1-6 6H486a6 6 0 0 1-6-6z" stroke="#000" stroke-opacity="0" fill="#fff" fill-opacity="0"/><use xlink:href="#c" transform="matrix(1,0,0,1,485,325) translate(1.5499999999999972 14.4)"/><path d="M827.7 466a6 6 0 0 1 6-6h55.7a6 6 0 0 1 6 6v8a6 6 0 0 1-6 6h-55.7a6 6 0 0 1-6-6z" stroke="#000" stroke-opacity="0" fill="#fff" fill-opacity="0"/><use xlink:href="#c" transform="matrix(1,0,0,1,832.6961996952703,465) translate(1.5499999999999972 14.4)"/><path d="M827.7 406a6 6 0 0 1 6-6h55.7a6 6 0 0 1 6 6v8a6 6 0 0 1-6 6h-55.7a6 6 0 0 1-6-6z" stroke="#000" stroke-opacity="0" fill="#fff" fill-opacity="0"/><use xlink:href="#d" transform="matrix(1,0,0,1,832.6961996952703,405) translate(1.5499999999999972 14.4)"/><defs><path fill="#e81313" d="M232-93c-1 65-40 97-104 97C67 4 28-28 28-90v-158h33c8 89-33 224 67 224 102 0 64-133 71-224h33v155" id="e"/><path fill="#e81313" d="M185-189c-5-48-123-54-124 2 14 75 158 14 163 119 3 78-121 87-175 55-17-10-28-26-33-46l33-7c5 56 141 63 141-1 0-78-155-14-162-118-5-82 145-84 179-34 5 7 8 16 11 25" id="f"/><path fill="#e81313" d="M160-131c35 5 61 23 61 61C221 17 115-2 30 0v-248c76 3 177-17 177 60 0 33-19 50-47 57zm-97-11c50-1 110 9 110-42 0-47-63-36-110-37v79zm0 115c55-2 124 14 124-45 0-56-70-42-124-44v89" id="g"/><g id="a"><use transform="matrix(0.04320987654320987,0,0,0.04320987654320987,0,0)" xlink:href="#e"/><use transform="matrix(0.04320987654320987,0,0,0.04320987654320987,11.191358024691356,0)" xlink:href="#f"/><use transform="matrix(0.04320987654320987,0,0,0.04320987654320987,21.561728395061724,0)" xlink:href="#g"/></g><path fill="#1071e5" d="M233-177c-1 41-23 64-60 70L243 0h-38l-65-103H63V0H30v-248c88 3 205-21 203 71zM63-129c60-2 137 13 137-47 0-61-80-42-137-45v92" id="h"/><path fill="#1071e5" d="M212-179c-10-28-35-45-73-45-59 0-87 40-87 99 0 60 29 101 89 101 43 0 62-24 78-52l27 14C228-24 195 4 139 4 59 4 22-46 18-125c-6-104 99-153 187-111 19 9 31 26 39 46" id="i"/><path fill="#1071e5" d="M205 0l-28-72H64L36 0H1l101-248h38L239 0h-34zm-38-99l-47-123c-12 45-31 82-46 123h93" id="j"/><g id="b"><use transform="matrix(0.04320987654320987,0,0,0.04320987654320987,0,0)" xlink:href="#h"/><use transform="matrix(0.04320987654320987,0,0,0.04320987654320987,11.191358024691356,0)" xlink:href="#i"/><use transform="matrix(0.04320987654320987,0,0,0.04320987654320987,22.38271604938271,0)" xlink:href="#j"/></g><path fill="#1071e5" d="M126-127c33 6 58 20 58 59 0 88-139 92-164 29-3-8-5-16-6-25l32-3c6 27 21 44 54 44 32 0 52-15 52-46 0-38-36-46-79-43v-28c39 1 72-4 72-42 0-27-17-43-46-43-28 0-47 15-49 41l-32-3c6-42 35-63 81-64 48-1 79 21 79 65 0 36-21 52-52 59" id="k"/><path fill="#1071e5" d="M33 0v-38h34V0H33" id="l"/><path fill="#1071e5" d="M54-142c48-35 137-8 131 61C196 18 31 33 14-55l32-4c7 23 22 37 52 37 35-1 51-22 54-58 4-55-73-65-99-34H22l8-134h141v27H59" id="m"/><path fill="#1071e5" d="M210-169c-67 3-38 105-44 169h-31v-121c0-29-5-50-35-48C34-165 62-65 56 0H25l-1-190h30c1 10-1 24 2 32 10-44 99-50 107 0 11-21 27-35 58-36 85-2 47 119 55 194h-31v-121c0-29-5-49-35-48" id="n"/><g id="c"><use transform="matrix(0.05,0,0,0.05,0,0)" xlink:href="#k"/><use transform="matrix(0.05,0,0,0.05,10,0)" xlink:href="#l"/><use transform="matrix(0.05,0,0,0.05,15,0)" xlink:href="#m"/><use transform="matrix(0.05,0,0,0.05,25,0)" xlink:href="#n"/><use transform="matrix(0.05,0,0,0.05,39.95,0)" xlink:href="#n"/></g><path fill="#e81313" d="M126-127c33 6 58 20 58 59 0 88-139 92-164 29-3-8-5-16-6-25l32-3c6 27 21 44 54 44 32 0 52-15 52-46 0-38-36-46-79-43v-28c39 1 72-4 72-42 0-27-17-43-46-43-28 0-47 15-49 41l-32-3c6-42 35-63 81-64 48-1 79 21 79 65 0 36-21 52-52 59" id="o"/><path fill="#e81313" d="M33 0v-38h34V0H33" id="p"/><path fill="#e81313" d="M54-142c48-35 137-8 131 61C196 18 31 33 14-55l32-4c7 23 22 37 52 37 35-1 51-22 54-58 4-55-73-65-99-34H22l8-134h141v27H59" id="q"/><path fill="#e81313" d="M210-169c-67 3-38 105-44 169h-31v-121c0-29-5-50-35-48C34-165 62-65 56 0H25l-1-190h30c1 10-1 24 2 32 10-44 99-50 107 0 11-21 27-35 58-36 85-2 47 119 55 194h-31v-121c0-29-5-49-35-48" id="r"/><g id="d"><use transform="matrix(0.05,0,0,0.05,0,0)" xlink:href="#o"/><use transform="matrix(0.05,0,0,0.05,10,0)" xlink:href="#p"/><use transform="matrix(0.05,0,0,0.05,15,0)" xlink:href="#q"/><use transform="matrix(0.05,0,0,0.05,25,0)" xlink:href="#r"/><use transform="matrix(0.05,0,0,0.05,39.95,0)" xlink:href="#r"/></g></defs></g></svg>